<?xml version="1.0" standalone="no"?>
<!DOCTYPE svg PUBLIC "-//W3C//DTD SVG 20010904//EN"
 "http://www.w3.org/TR/2001/REC-SVG-20010904/DTD/svg10.dtd">
<svg version="1.0" xmlns="http://www.w3.org/2000/svg"
 width="979.000000pt" height="2000.000000pt" viewBox="0 0 979.000000 2000.000000"
 preserveAspectRatio="xMidYMid meet">

<g transform="translate(0.000000,2000.000000) scale(0.100000,-0.100000)"
fill="#000000" stroke="none">
<path d="M1605 19909 c-214 -14 -418 -55 -565 -115 -423 -171 -710 -493 -831
-933 -69 -254 -78 -443 -79 -1603 l0 -897 -22 -3 -23 -3 0 -370 0 -370 22 -3
23 -3 0 -305 0 -304 -25 0 -25 0 2 -692 3 -693 23 -3 c22 -3 22 -4 22 -187 0
-183 0 -184 -22 -187 l-23 -3 0 -690 0 -690 23 -3 22 -3 0 -5002 c0 -2983 4
-5083 10 -5202 13 -279 48 -472 119 -657 165 -426 513 -728 971 -842 58 -14
161 -34 230 -43 117 -17 325 -18 3420 -18 3487 0 3379 -1 3611 45 137 28 237
63 374 129 363 177 616 494 720 900 38 150 55 275 65 494 6 121 10 2216 10
5200 l0 4997 25 0 25 0 0 1095 c0 1036 -1 1095 -17 1096 -10 1 -21 1 -25 0 -5
0 -8 923 -8 2051 0 1160 -5 2142 -10 2259 -21 448 -109 733 -307 998 -184 247
-460 425 -783 505 -259 64 -15 60 -3590 62 -1785 1 -3299 -2 -3365 -7z m1965
-51 c208 -1 307 -5 312 -12 5 -7 8 -7 8 2 0 11 21 13 93 11 50 -2 98 -7 105
-12 7 -5 12 -6 12 -1 0 5 18 9 39 9 23 0 37 -4 33 -10 -3 -5 2 -4 11 3 9 8 21
11 26 8 5 -4 13 -2 16 4 5 8 11 8 19 1 7 -6 23 -8 37 -5 37 9 81 5 98 -9 12
-9 13 -9 7 1 -5 8 2 12 24 12 18 0 29 -4 25 -10 -3 -5 -1 -10 4 -10 6 0 11 4
11 10 0 6 549 10 1610 9 1396 0 1610 -2 1610 -15 0 -11 -17 -14 -82 -14 -155
0 -4061 0 -4682 0 -341 0 -617 3 -614 6 3 3 107 6 231 7 124 1 223 5 221 9 -7
11 39 6 55 -6 11 -8 13 -8 8 0 -5 9 45 11 188 10 106 -1 192 0 190 3 -2 3 16
5 38 3 23 -1 179 -3 347 -4z m4690 -8 c136 -15 154 -18 265 -47 55 -14 105
-30 110 -37 6 -6 28 -17 50 -24 125 -42 318 -160 420 -257 l60 -57 -65 55
c-163 136 -327 219 -535 271 -181 45 -365 65 -648 70 -125 2 -231 7 -234 10
-4 3 19 6 51 6 36 0 58 5 61 13 6 15 317 13 465 -3z m-5980 -12 c0 -5 -39 -8
-87 -8 -49 0 -83 4 -76 8 15 9 163 9 163 0z m-443 -4 c-3 -3 -12 -4 -19 -1 -8
3 -5 6 6 6 11 1 17 -2 13 -5z m100 0 c-3 -3 -12 -4 -19 -1 -8 3 -5 6 6 6 11 1
17 -2 13 -5z m46 -1 c-7 -2 -19 -2 -25 0 -7 3 -2 5 12 5 14 0 19 -2 13 -5z
m6387 -291 c578 -112 878 -465 930 -1097 13 -165 13 -16725 0 -16890 -41 -493
-228 -807 -590 -990 -88 -44 -211 -82 -348 -107 l-127 -23 -3340 0 -3340 0
-127 23 c-581 105 -886 462 -938 1097 -13 165 -13 16725 0 16890 25 301 99
523 237 702 184 242 454 375 836 412 45 5 1569 8 3387 7 l3305 -2 115 -22z
m-7807 -190 c-32 -38 -68 -82 -81 -98 l-22 -29 19 33 c18 33 128 162 137 162
3 0 -21 -31 -53 -68z m8628 51 c13 -16 12 -17 -3 -4 -17 13 -22 21 -14 21 2 0
10 -8 17 -17z m60 -70 c13 -16 12 -17 -3 -4 -17 13 -22 21 -14 21 2 0 10 -8
17 -17z m79 -101 c0 -10 -59 62 -60 72 0 5 14 -8 30 -29 17 -21 30 -40 30 -43z
m-8913 -86 c-23 -41 -43 -73 -45 -71 -5 5 74 145 82 145 3 0 -14 -34 -37 -74z
m8977 -19 c95 -177 159 -412 185 -687 12 -121 17 -408 8 -430 -11 -27 -12
-130 -2 -133 12 -4 14 -15757 3 -15757 -10 0 -10 -114 -1 -124 8 -8 6 -296 -3
-386 -21 -223 -49 -367 -105 -535 -37 -113 -116 -276 -141 -291 -8 -5 27 64
52 101 4 6 22 46 40 90 68 166 103 333 120 583 14 214 14 16670 0 16884 -17
250 -52 417 -120 583 -18 44 -36 85 -40 90 -25 37 -60 106 -52 101 6 -4 31
-44 56 -89z m-9033 -94 c-12 -20 -14 -14 -5 12 4 9 9 14 11 11 3 -2 0 -13 -6
-23z m-20 -50 c-12 -20 -14 -14 -5 12 4 9 9 14 11 11 3 -2 0 -13 -6 -23z m-70
-259 c-12 -60 -25 -167 -31 -238 -7 -85 -10 -2895 -10 -8307 0 -7199 -2 -8179
-15 -8179 -13 0 -14 332 -12 2743 1 1830 5 2744 12 2749 7 5 7 8 0 8 -11 0
-13 435 -2 446 3 3 2 16 -2 28 -7 19 -7 49 -2 211 1 28 1 79 -1 113 -2 35 0
66 4 69 5 2 8 9 8 14 0 6 -3 8 -8 6 -4 -3 -7 93 -7 214 0 120 3 219 7 219 4 0
4 10 0 23 -6 18 -8 961 -2 977 1 3 1 10 0 15 -2 6 -5 412 -6 903 -3 696 -1
891 9 885 9 -5 9 -3 1 8 -8 10 -11 608 -12 2144 -1 1172 -2 2515 -3 2985 0
833 6 1534 15 1635 10 107 17 172 22 210 7 59 47 236 51 231 2 -2 -5 -53 -16
-112z m-174 -2746 c-3 -8 -6 -5 -6 6 -1 11 2 17 5 13 3 -3 4 -12 1 -19z m0
-1220 c-3 -7 -5 -2 -5 12 0 14 2 19 5 13 2 -7 2 -19 0 -25z m0 -70 c-3 -8 -6
-5 -6 6 -1 11 2 17 5 13 3 -3 4 -12 1 -19z m0 -40 c-3 -8 -6 -5 -6 6 -1 11 2
17 5 13 3 -3 4 -12 1 -19z m0 -90 c-3 -8 -6 -5 -6 6 -1 11 2 17 5 13 3 -3 4
-12 1 -19z m0 -65 c-3 -10 -5 -2 -5 17 0 19 2 27 5 18 2 -10 2 -26 0 -35z m0
-65 c-3 -8 -6 -5 -6 6 -1 11 2 17 5 13 3 -3 4 -12 1 -19z m0 -95 c-3 -10 -5
-4 -5 12 0 17 2 24 5 18 2 -7 2 -21 0 -30z m0 -80 c-3 -10 -5 -4 -5 12 0 17 2
24 5 18 2 -7 2 -21 0 -30z m9603 -1303 c0 -583 -3 -1060 -7 -1060 -6 0 -8
2050 -3 2118 0 1 2 2 5 2 3 0 5 -477 5 -1060z m-9603 1008 c-3 -8 -6 -5 -6 6
-1 11 2 17 5 13 3 -3 4 -12 1 -19z m0 -960 c-3 -8 -6 -5 -6 6 -1 11 2 17 5 13
3 -3 4 -12 1 -19z m0 -80 c-3 -7 -5 -2 -5 12 0 14 2 19 5 13 2 -7 2 -19 0 -25z
m0 -40 c-3 -8 -6 -5 -6 6 -1 11 2 17 5 13 3 -3 4 -12 1 -19z m0 -80 c-3 -8 -6
-5 -6 6 -1 11 2 17 5 13 3 -3 4 -12 1 -19z m0 -70 c-3 -7 -5 -2 -5 12 0 14 2
19 5 13 2 -7 2 -19 0 -25z m0 -70 c-3 -8 -6 -5 -6 6 -1 11 2 17 5 13 3 -3 4
-12 1 -19z m0 -320 c-3 -7 -5 -2 -5 12 0 14 2 19 5 13 2 -7 2 -19 0 -25z m0
-60 c-3 -8 -6 -5 -6 6 -1 11 2 17 5 13 3 -3 4 -12 1 -19z m0 -80 c-3 -8 -6 -5
-6 6 -1 11 2 17 5 13 3 -3 4 -12 1 -19z m0 -40 c-3 -8 -6 -5 -6 6 -1 11 2 17
5 13 3 -3 4 -12 1 -19z m0 -90 c-3 -7 -5 -2 -5 12 0 14 2 19 5 13 2 -7 2 -19
0 -25z m136 -10340 c3 -156 12 -304 21 -363 8 -55 18 -116 21 -135 5 -35 5
-35 -5 -5 -12 36 -36 178 -44 260 -16 160 -27 490 -17 500 15 16 19 -21 24
-257z m54 -560 c-3 -8 -6 -5 -6 6 -1 11 2 17 5 13 3 -3 4 -12 1 -19z m83 -223
c0 -5 -5 -3 -10 5 -5 8 -10 20 -10 25 0 6 5 3 10 -5 5 -8 10 -19 10 -25z m60
-115 c6 -11 8 -20 6 -20 -3 0 -10 9 -16 20 -6 11 -8 20 -6 20 3 0 10 -9 16
-20z m71 -107 c13 -16 12 -17 -3 -4 -10 7 -18 15 -18 17 0 8 8 3 21 -13z
m8792 -7 c-10 -13 -20 -22 -22 -20 -4 4 29 44 36 44 2 0 -4 -11 -14 -24z m-33
-40 c0 -2 -8 -10 -17 -17 -16 -13 -17 -12 -4 4 13 16 21 21 21 13z m-8675 -56
c10 -11 16 -20 13 -20 -3 0 -13 9 -23 20 -10 11 -16 20 -13 20 3 0 13 -9 23
-20z m8615 -14 c0 -2 -8 -10 -17 -17 -16 -13 -17 -12 -4 4 13 16 21 21 21 13z
m-95 -92 c-108 -100 -282 -206 -417 -254 -27 -9 -45 -19 -42 -22 5 -6 -12 -14
-53 -23 -10 -3 -45 -12 -78 -20 -33 -9 -71 -17 -85 -20 -14 -2 -36 -7 -50 -10
-73 -16 -222 -24 -460 -26 -906 -5 -3470 3 -3470 11 0 6 -5 10 -11 10 -5 0 -8
-4 -4 -10 3 -5 -16 -10 -47 -10 -29 0 -60 -1 -68 -1 -21 0 -43 5 -57 14 -7 4
-16 0 -21 -9 -6 -11 -11 -13 -16 -5 -4 6 -12 11 -17 11 -6 0 -8 -4 -5 -8 3 -5
-1 -9 -9 -9 -8 0 -13 5 -12 11 1 6 -4 10 -11 8 -7 -1 -74 -5 -148 -7 -104 -4
-134 -2 -134 7 0 10 -2 10 -8 1 -5 -7 -40 -10 -107 -8 -55 1 -104 0 -109 -3
-5 -2 -47 -3 -95 -2 -105 3 -201 4 -301 3 -41 -1 -154 -1 -250 1 -96 1 -185
-1 -198 -6 -13 -4 -21 -4 -18 1 3 5 -1 12 -10 15 -8 3 -13 2 -10 -3 3 -5 -5
-8 -19 -8 -14 0 -23 2 -21 6 6 10 -137 7 -153 -3 -9 -6 -12 -5 -7 2 4 7 -37
11 -139 10 -81 0 -149 3 -152 6 -4 3 272 6 613 6 340 0 1587 0 2769 0 2053 1
2474 5 2665 30 306 41 582 157 765 324 28 25 52 45 55 45 3 0 -22 -25 -55 -55z
m-7168 -350 c-3 -3 -12 -4 -19 -1 -8 3 -5 6 6 6 11 1 17 -2 13 -5z m40 0 c-3
-3 -12 -4 -19 -1 -8 3 -5 6 6 6 11 1 17 -2 13 -5z m116 -1 c-18 -2 -48 -2 -65
0 -18 2 -4 4 32 4 36 0 50 -2 33 -4z m105 2 c-9 -9 -68 -12 -68 -4 0 5 17 9
37 9 20 0 34 -2 31 -5z m78 -3 c-5 -8 -66 -4 -66 4 0 2 16 4 36 4 19 0 33 -4
30 -8z"/>
<path d="M3978 19843 c7 -3 16 -2 19 1 4 3 -2 6 -13 5 -11 0 -14 -3 -6 -6z"/>
<path d="M4468 19843 c6 -2 18 -2 25 0 6 3 1 5 -13 5 -14 0 -19 -2 -12 -5z"/>
<path d="M3927 19339 c-166 -24 -298 -167 -314 -340 -11 -117 56 -254 161
-326 97 -66 48 -64 1142 -61 l989 3 57 27 c157 73 249 265 203 424 -44 153
-160 253 -318 274 -90 12 -1840 11 -1920 -1z"/>
<path d="M3978 153 c7 -3 16 -2 19 1 4 3 -2 6 -13 5 -11 0 -14 -3 -6 -6z"/>
<path d="M4468 153 c6 -2 18 -2 25 0 6 3 1 5 -13 5 -14 0 -19 -2 -12 -5z"/>
</g>
</svg>
